<svg width="891" height="137" viewBox="0 0 891 137" fill="none" xmlns="http://www.w3.org/2000/svg">
<path fill-rule="evenodd" clip-rule="evenodd" d="M17.2527 67.4304V102.784C22.7192 104.106 28.0928 104.672 33.3737 104.481C38.9351 104.388 42.8483 102.691 45.111 99.39C47.3738 96.0915 48.5512 90.1047 48.6466 81.4306C48.5512 72.9452 47.6077 67.1965 45.8181 64.178C44.0261 61.1617 40.2544 59.6527 34.505 59.6527C31.6768 59.6527 29.0362 60.2671 26.5862 61.4918C24.1331 62.718 21.0222 64.6977 17.2527 67.4304ZM17.2527 17.5122V40.8451C17.2527 47.5395 16.6868 52.9132 15.5559 56.9659C22.9093 49.1414 31.3941 45.2284 41.0102 45.2284C49.7775 45.2284 56.1877 48.0571 60.2424 53.7131C64.2948 59.3704 66.3231 68.6104 66.3231 81.4306C66.3231 93.499 63.9411 102.643 59.1818 108.865C54.42 115.087 45.9596 118.198 33.7982 118.198C28.4243 118.198 22.485 117.749 15.9799 116.855C9.47478 115.96 4.14769 114.663 0 112.966V17.5122H17.2527Z" fill="#112538"/>
<path fill-rule="evenodd" clip-rule="evenodd" d="M113.697 58.9443C107.285 58.9443 102.95 60.5245 100.687 63.6816C98.4247 66.8407 97.2926 72.8976 97.2926 81.8526C97.2926 90.716 98.4247 96.7259 100.687 99.883C102.95 103.043 107.285 104.62 113.697 104.62C119.919 104.62 124.184 103.043 126.495 99.883C128.804 96.7259 129.96 90.716 129.96 81.8526C129.96 72.8976 128.804 66.8407 126.495 63.6816C124.184 60.5245 119.919 58.9443 113.697 58.9443ZM113.697 45.2266C126.142 45.2266 134.932 48.009 140.071 53.57C145.208 59.134 147.778 68.5598 147.778 81.8526C147.778 95.1459 145.208 104.55 140.071 110.065C134.932 115.58 126.142 118.338 113.697 118.338C101.158 118.338 92.2948 115.58 87.1115 110.065C81.9255 104.55 79.3335 95.1459 79.3335 81.8526C79.3335 68.5598 81.9255 59.134 87.1115 53.57C92.2948 48.009 101.158 45.2266 113.697 45.2266Z" fill="#112538"/>
<path fill-rule="evenodd" clip-rule="evenodd" d="M304.032 47.2062L305.022 57.3882C314.26 49.2814 323.31 45.2266 332.173 45.2266C341.506 45.2266 347.397 49.0931 349.85 56.8229C358.523 49.0931 367.29 45.2266 376.152 45.2266C382.279 45.2266 386.947 46.8776 390.152 50.176C393.357 53.4773 394.961 58.2373 394.961 64.4591V116.499H378.132V69.6913C378.037 66.1094 377.376 63.5637 376.152 62.0552C374.926 60.5483 372.71 59.7919 369.506 59.7919C366.77 59.7919 364.203 60.3578 361.799 61.4899C359.395 62.6206 355.74 64.837 350.839 68.1354V116.499H334.294V69.6913C334.387 66.0146 333.751 63.4471 332.385 61.9836C331.018 60.5245 328.779 59.7919 325.668 59.7919C323.027 59.7919 320.482 60.3578 318.032 61.4899C315.579 62.6206 311.951 64.7906 307.143 67.9943V116.499H290.032V47.2062H304.032Z" fill="#112538"/>
<path fill-rule="evenodd" clip-rule="evenodd" d="M449.547 86.098L427.345 82.8459C422.255 82.0918 418.507 80.3247 416.103 77.5423C413.699 74.7629 412.497 70.5426 412.497 64.8859C412.497 56.9668 414.382 51.9 418.154 49.6845C421.922 47.4703 428.523 46.4555 437.951 46.6437C448.133 46.8333 457.134 47.4465 464.96 48.4822L464.396 52.5833C453.553 52.0173 444.927 51.6879 438.517 51.5931C430.408 51.405 424.963 52.0412 422.184 53.5019C419.402 54.9647 418.012 58.759 418.012 64.8859C418.012 69.3186 418.906 72.4759 420.698 74.361C422.489 76.2477 425.27 77.4718 429.043 78.0375L451.244 81.2902C456.428 82.1384 460.317 83.9547 462.91 86.7349C465.502 89.5167 466.8 93.593 466.8 98.9665C466.8 106.982 464.725 112.167 460.578 114.522C456.428 116.878 449.357 118.057 439.366 118.057C430.315 118.057 421.876 117.492 414.053 116.361L414.618 112.26C422.724 112.92 430.785 113.203 438.8 113.108C447.567 113.015 453.507 112.096 456.618 110.351C459.729 108.607 461.285 104.814 461.285 98.9665C461.285 94.8193 460.27 91.803 458.244 89.9162C456.215 88.0314 453.317 86.7586 449.547 86.098Z" fill="#112538"/>
<path fill-rule="evenodd" clip-rule="evenodd" d="M497.485 53.1488V101.512C497.485 108.677 501.114 112.259 508.374 112.259H520.253L520.96 116.36C516.718 117.113 512.381 117.491 507.95 117.491C497.203 117.491 491.829 112.354 491.829 102.077V53.1488H479.526V49.0477L491.829 48.4816V27.2695H497.485V48.3405H521.809V53.1488H497.485Z" fill="#112538"/>
<path fill-rule="evenodd" clip-rule="evenodd" d="M577.101 46.644L576.252 52.0177H573.424C569.087 52.0177 564.773 52.9853 560.485 54.9167C556.194 56.8499 550.607 60.0318 543.728 64.4623V116.502H538.213V48.3414H542.455L543.161 60.361C554.663 51.2185 565.032 46.644 574.273 46.644H577.101Z" fill="#112538"/>
<path fill-rule="evenodd" clip-rule="evenodd" d="M592.228 80.5836H627.723C634.698 80.5836 638.045 76.0583 637.763 67.0079C637.668 61.7292 635.9 57.864 632.46 55.4117C629.018 52.9615 623.668 51.7354 616.409 51.7354C607.547 51.7354 601.324 53.8563 597.743 58.0985C594.159 62.3407 592.321 69.8358 592.228 80.5836ZM628.571 85.2494H592.228C592.604 95.6217 594.774 102.856 598.733 106.957C602.692 111.058 609.102 113.108 617.965 113.108C625.789 113.108 633.567 112.543 641.298 111.411L642.005 115.371C636.349 117.257 628.098 118.199 617.258 118.199C606.227 118.199 598.308 115.442 593.501 109.927C588.692 104.412 586.289 95.1491 586.289 82.1388C586.289 69.1289 588.573 59.9615 593.147 54.6342C597.718 49.3091 605.378 46.644 616.126 46.644C634.132 46.644 643.278 53.3393 643.561 66.7244C643.748 72.9465 642.642 77.5916 640.237 80.6542C637.833 83.7192 633.944 85.2494 628.571 85.2494Z" fill="#112538"/>
<path fill-rule="evenodd" clip-rule="evenodd" d="M666.616 91.7549V99.3913C666.616 107.876 671.046 112.167 679.909 112.26C684.622 112.355 689.9 111.153 695.747 108.655C701.591 106.157 706.54 103.022 710.598 99.2501V79.5931L678.353 80.0178C670.526 80.1125 666.616 84.0253 666.616 91.7549ZM664.212 53.8563L663.646 49.6132C677.976 47.6343 688.818 46.644 696.171 46.644C709.559 46.644 716.252 53.2438 716.252 66.4419V116.502H712.01L711.02 103.917C707.53 107.311 702.839 110.421 696.949 113.249C691.056 116.078 685.187 117.492 679.343 117.492C673.497 117.492 668.949 115.961 665.697 112.897C662.443 109.834 660.818 105.472 660.818 99.8158V91.3309C660.818 86.1477 662.302 82.1388 665.273 79.3107C668.242 76.4826 672.414 75.0687 677.787 75.0687H710.598V66.4419C710.598 61.7292 709.461 58.0985 707.2 55.5528C704.938 53.0072 701.026 51.7354 695.464 51.7354C687.355 51.7354 676.939 52.4425 664.212 53.8563Z" fill="#112538"/>
<path fill-rule="evenodd" clip-rule="evenodd" d="M745.799 48.3414L746.368 60.361C756.831 51.2185 766.733 46.644 776.066 46.644C785.96 46.644 791.712 51.1693 793.32 60.2199C803.784 51.1693 813.629 46.644 822.871 46.644C834.654 46.644 840.546 52.8661 840.546 65.3105V116.502H835.034V66.442C834.942 56.6377 830.322 51.7354 821.178 51.7354C817.028 51.7354 812.976 52.7248 809.015 54.7044C805.055 56.6849 799.963 60.0318 793.741 64.7451V116.502H788.229V66.442C788.229 56.6377 783.608 51.7354 774.367 51.7354C770.314 51.7354 766.284 52.7248 762.274 54.7044C758.271 56.6849 753.159 60.0318 746.937 64.7451V116.502H741.417V48.3414H745.799Z" fill="#112538"/>
<path fill-rule="evenodd" clip-rule="evenodd" d="M213.608 22.0713L213.597 40.6296C186.553 43.65 171.268 70.5914 182.162 96.228L166.062 104.901C157.271 86.5494 157.924 64.4681 169.277 47.5677C179.05 33.0187 195.07 23.1344 213.608 22.0713Z" fill="#24BBE5"/>
<path fill-rule="evenodd" clip-rule="evenodd" d="M220.965 22.0747L220.96 40.6442C248.351 43.7466 263.208 71.741 252.168 96.2458L268.316 105.331C277.107 86.9799 276.481 64.4952 265.13 47.5943C255.356 33.0452 239.503 23.1379 220.965 22.0747Z" fill="#7CA644"/>
<path fill-rule="evenodd" clip-rule="evenodd" d="M264.903 110.948L249.217 101.564C232.64 123.825 201.022 123.458 185.012 101.193L169.334 110.58C180.87 127.885 199.479 137.009 216.847 136.534C234.713 137.585 254.835 127.139 264.903 110.948Z" fill="#ED6D22"/>
<path fill-rule="evenodd" clip-rule="evenodd" d="M240.979 79.2363L221.631 90.5138L202.282 101.792L202.292 79.219L202.302 56.646L221.64 67.9411L240.979 79.2363Z" fill="#112538"/>
<path fill-rule="evenodd" clip-rule="evenodd" d="M887.019 22.0699C887.019 17.0746 884.994 12.5522 881.721 9.27908C878.448 6.0059 873.925 3.98125 868.93 3.98125C863.935 3.98125 859.412 6.0059 856.139 9.27908C852.866 12.5522 850.842 17.0746 850.842 22.0699C850.842 27.0651 852.866 31.5876 856.139 34.8606C859.412 38.1338 863.935 40.1584 868.93 40.1584C873.925 40.1584 878.448 38.1338 881.721 34.8606C884.994 31.5876 887.019 27.0651 887.019 22.0699ZM884.536 6.46432C888.53 10.4584 891 15.9758 891 22.0699C891 28.1641 888.529 33.6817 884.536 37.6753C880.542 41.6691 875.025 44.1397 868.93 44.1397C862.837 44.1397 857.318 41.6691 853.325 37.6753C849.331 33.6817 846.86 28.1641 846.86 22.0699C846.86 15.9758 849.331 10.4584 853.325 6.46432C857.318 2.47058 862.837 0 868.93 0C875.024 0 880.542 2.47058 884.536 6.46432Z" fill="#112538"/>
<path fill-rule="evenodd" clip-rule="evenodd" d="M867.703 20.2512C868.951 20.2512 869.858 20.0016 870.403 19.5252C870.947 19.0714 871.242 18.3 871.242 17.2109C871.242 16.1446 870.947 15.3958 870.403 14.9194C869.858 14.4656 868.951 14.2387 867.703 14.2387H865.162V20.2512H867.703ZM865.162 24.4032V33.2517H859.127V9.85986H868.338C871.424 9.85986 873.67 10.3817 875.099 11.4253C876.551 12.4464 877.255 14.08 877.255 16.326C877.255 17.8689 876.892 19.1395 876.143 20.1377C875.394 21.1133 874.283 21.8621 872.762 22.3158C873.602 22.5201 874.328 22.9511 874.986 23.6091C875.644 24.2671 876.302 25.2653 876.96 26.6266L880.25 33.2517H873.829L870.97 27.4434C870.403 26.2862 869.813 25.4696 869.223 25.0611C868.633 24.6301 867.839 24.4032 866.863 24.4032H865.162Z" fill="#112538"/>
</svg>
