<svg width="890" height="137" viewBox="0 0 890 137" fill="none" xmlns="http://www.w3.org/2000/svg">
<path fill-rule="evenodd" clip-rule="evenodd" d="M17.2324 67.3523V102.666C22.6927 103.986 28.0603 104.552 33.3352 104.361C38.8904 104.268 42.7992 102.574 45.0594 99.276C47.3195 95.9812 48.4957 90.0012 48.5909 81.3368C48.4957 72.861 47.5532 67.1187 45.7657 64.1035C43.9757 61.0907 40.2081 59.5833 34.4652 59.5833C31.6402 59.5833 29.0026 60.1971 26.5553 61.4204C24.105 62.6452 20.9976 64.6227 17.2324 67.3523ZM17.2324 17.4902V40.7969C17.2324 47.4838 16.6671 52.8515 15.5375 56.8996C22.8826 49.0839 31.3579 45.1753 40.9631 45.1753C49.7206 45.1753 56.1235 48.0008 60.1737 53.6504C64.2216 59.3013 66.2475 68.531 66.2475 81.3368C66.2475 93.3916 63.8683 102.525 59.1143 108.74C54.3578 114.956 45.907 118.063 33.7592 118.063C28.3914 118.063 22.4588 117.615 15.961 116.721C9.46315 115.828 4.14205 114.531 -0.000976562 112.837V17.4902H17.2324Z" fill="white"/>
<path fill-rule="evenodd" clip-rule="evenodd" d="M113.566 58.8796C107.161 58.8796 102.831 60.458 100.57 63.6115C98.3105 66.7671 97.1797 72.8172 97.1797 81.7621C97.1797 90.6155 98.3105 96.6187 100.57 99.7722C102.831 102.928 107.161 104.504 113.566 104.504C119.781 104.504 124.041 102.928 126.349 99.7722C128.655 96.6187 129.81 90.6155 129.81 81.7621C129.81 72.8172 128.655 66.7671 126.349 63.6115C124.041 60.458 119.781 58.8796 113.566 58.8796ZM113.566 45.1772C125.996 45.1772 134.776 47.9566 139.91 53.5113C145.041 59.0691 147.608 68.4843 147.608 81.7621C147.608 95.0405 145.041 104.434 139.91 109.943C134.776 115.452 125.996 118.206 113.566 118.206C101.041 118.206 92.1875 115.452 87.0099 109.943C81.8298 104.434 79.2407 95.0405 79.2407 81.7621C79.2407 68.4843 81.8298 59.0691 87.0099 53.5113C92.1875 47.9566 101.041 45.1772 113.566 45.1772Z" fill="white"/>
<path fill-rule="evenodd" clip-rule="evenodd" d="M303.688 47.1547L304.677 57.3252C313.905 49.2275 322.945 45.1772 331.797 45.1772C341.12 45.1772 347.004 49.0395 349.454 56.7606C358.117 49.0395 366.875 45.1772 375.727 45.1772C381.848 45.1772 386.51 46.8264 389.712 50.1211C392.913 53.4187 394.515 58.1733 394.515 64.3882V116.37H377.705V69.6145C377.61 66.0366 376.95 63.4938 375.727 61.987C374.503 60.4818 372.289 59.7262 369.089 59.7262C366.356 59.7262 363.792 60.2915 361.39 61.4223C358.989 62.5517 355.338 64.7656 350.443 68.0604V116.37H333.916V69.6145C334.009 65.9419 333.373 63.3773 332.009 61.9154C330.643 60.458 328.407 59.7262 325.3 59.7262C322.662 59.7262 320.119 60.2915 317.672 61.4223C315.222 62.5517 311.598 64.7193 306.795 67.9194V116.37H289.704V47.1547H303.688Z" fill="white"/>
<path fill-rule="evenodd" clip-rule="evenodd" d="M449.044 86.0013L426.867 82.7529C421.782 81.9997 418.039 80.2346 415.638 77.4553C413.236 74.679 412.036 70.4635 412.036 64.8131C412.036 56.9029 413.918 51.8419 417.686 49.6288C421.45 47.4171 428.043 46.4035 437.461 46.5914C447.632 46.7808 456.623 47.3933 464.44 48.4279L463.876 52.5243C453.046 51.959 444.429 51.63 438.026 51.5353C429.926 51.3474 424.488 51.9829 421.711 53.442C418.933 54.903 417.544 58.6931 417.544 64.8131C417.544 69.2408 418.438 72.3946 420.228 74.2776C422.016 76.1622 424.794 77.3848 428.563 77.9499L450.739 81.199C455.917 82.0463 459.801 83.8604 462.392 86.6376C464.982 89.4162 466.278 93.4879 466.278 98.8554C466.278 106.861 464.205 112.041 460.062 114.394C455.917 116.746 448.854 117.925 438.874 117.925C429.834 117.925 421.404 117.36 413.589 116.23L414.155 112.134C422.252 112.794 430.304 113.076 438.309 112.981C447.066 112.888 452.999 111.97 456.107 110.227C459.214 108.485 460.768 104.696 460.768 98.8554C460.768 94.7128 459.755 91.7 457.731 89.8152C455.705 87.9326 452.809 86.6613 449.044 86.0013Z" fill="white"/>
<path fill-rule="evenodd" clip-rule="evenodd" d="M496.924 53.0875V101.396C496.924 108.554 500.548 112.131 507.8 112.131H519.666L520.372 116.228C516.134 116.98 511.802 117.358 507.377 117.358C496.642 117.358 491.273 112.226 491.273 101.961V53.0875H478.984V48.991L491.273 48.4255V27.2373H496.924V48.2845H521.22V53.0875H496.924Z" fill="white"/>
<path fill-rule="evenodd" clip-rule="evenodd" d="M576.45 46.5918L575.602 51.9594H572.777C568.445 51.9594 564.136 52.926 559.853 54.8551C555.567 56.7862 549.986 59.9645 543.115 64.39V116.371H537.605V48.2873H541.843L542.549 60.2933C554.037 51.1611 564.395 46.5918 573.625 46.5918H576.45Z" fill="white"/>
<path fill-rule="evenodd" clip-rule="evenodd" d="M591.565 80.4931H627.02C633.987 80.4931 637.331 75.9729 637.049 66.9328C636.954 61.66 635.188 57.7991 631.752 55.3496C628.313 52.9021 622.969 51.6774 615.719 51.6774C606.866 51.6774 600.651 53.7959 597.073 58.0334C593.494 62.2708 591.657 69.7575 591.565 80.4931ZM627.866 85.1537H591.565C591.94 95.5144 594.107 102.741 598.062 106.837C602.017 110.933 608.42 112.981 617.272 112.981C625.088 112.981 632.857 112.417 640.58 111.286L641.286 115.241C635.636 117.125 627.394 118.066 616.566 118.066C605.548 118.066 597.638 115.312 592.836 109.803C588.033 104.294 585.632 95.0423 585.632 82.0467C585.632 69.0514 587.913 59.8942 592.483 54.573C597.049 49.2538 604.7 46.5918 615.436 46.5918C633.422 46.5918 642.557 53.2795 642.84 66.6496C643.027 72.8647 641.922 77.5046 639.52 80.5637C637.119 83.6252 633.234 85.1537 627.866 85.1537Z" fill="white"/>
<path fill-rule="evenodd" clip-rule="evenodd" d="M665.863 91.6519V99.2797C665.863 107.755 670.288 112.041 679.141 112.134C683.848 112.229 689.121 111.029 694.961 108.533C700.798 106.038 705.742 102.906 709.796 99.1388V79.5039L677.587 79.928C669.769 80.0227 665.863 83.9311 665.863 91.6519ZM663.461 53.7959L662.897 49.5576C677.21 47.581 688.04 46.5918 695.385 46.5918C708.758 46.5918 715.443 53.1841 715.443 66.3675V116.371H711.206L710.217 103.8C706.731 107.19 702.045 110.298 696.162 113.122C690.276 115.948 684.413 117.361 678.576 117.361C672.736 117.361 668.193 115.831 664.945 112.77C661.695 109.71 660.072 105.354 660.072 99.7038V91.2284C660.072 86.0511 661.554 82.0467 664.521 79.2217C667.487 76.3968 671.654 74.9845 677.022 74.9845H709.796V66.3675C709.796 61.66 708.66 58.0334 706.401 55.4906C704.142 52.9478 700.235 51.6774 694.679 51.6774C686.579 51.6774 676.175 52.3837 663.461 53.7959Z" fill="white"/>
<path fill-rule="evenodd" clip-rule="evenodd" d="M744.962 48.2873L745.53 60.2933C755.982 51.1611 765.872 46.5918 775.195 46.5918C785.078 46.5918 790.823 51.112 792.429 60.1524C802.881 51.112 812.716 46.5918 821.947 46.5918C833.717 46.5918 839.602 52.8069 839.602 65.2373V116.371H834.096V66.3675C834.005 56.5743 829.389 51.6774 820.256 51.6774C816.111 51.6774 812.063 52.6657 808.107 54.6431C804.151 56.6214 799.065 59.9645 792.85 64.6725V116.371H787.344V66.3675C787.344 56.5743 782.728 51.6774 773.497 51.6774C769.45 51.6774 765.423 52.6657 761.418 54.6431C757.42 56.6214 752.313 59.9645 746.098 64.6725V116.371H740.585V48.2873H744.962Z" fill="white"/>
<path fill-rule="evenodd" clip-rule="evenodd" d="M213.37 22.0493L213.36 40.5868C186.346 43.6037 171.079 70.5149 181.96 96.1227L165.878 104.786C157.097 86.455 157.749 64.3985 169.089 47.5171C178.851 32.9844 194.853 23.1113 213.37 22.0493Z" fill="#24BBE5"/>
<path fill-rule="evenodd" clip-rule="evenodd" d="M220.718 22.0503L220.714 40.5989C248.074 43.6978 262.914 71.6608 251.887 96.138L268.017 105.213C276.798 86.8825 276.173 64.4231 264.834 47.5412C255.071 33.0085 239.235 23.1123 220.718 22.0503Z" fill="#7CA644"/>
<path fill-rule="evenodd" clip-rule="evenodd" d="M264.606 110.825L248.937 101.451C232.379 123.686 200.797 123.32 184.805 101.081L169.144 110.456C180.667 127.742 199.256 136.856 216.604 136.382C234.45 137.431 254.549 126.998 264.606 110.825Z" fill="#ED6D22"/>
<path fill-rule="evenodd" clip-rule="evenodd" d="M240.71 79.1465L221.383 90.4113L202.057 101.677L202.067 79.1292L202.076 56.5815L221.393 67.864L240.71 79.1465Z" fill="white"/>
<path fill-rule="evenodd" clip-rule="evenodd" d="M886.023 22.0451C886.023 17.0554 884 12.5382 880.731 9.26866C877.461 5.99916 872.944 3.97678 867.954 3.97678C862.965 3.97678 858.447 5.99916 855.178 9.26866C851.909 12.5382 849.886 17.0554 849.886 22.0451C849.886 27.0347 851.909 31.5521 855.178 34.8214C858.447 38.0909 862.965 40.1133 867.954 40.1133C872.944 40.1133 877.461 38.0909 880.731 34.8214C884 31.5521 886.023 27.0347 886.023 22.0451ZM883.542 6.45706C887.532 10.4466 890 15.9578 890 22.0451C890 28.1325 887.532 33.6439 883.542 37.633C879.553 41.6223 874.042 44.0901 867.954 44.0901C861.868 44.0901 856.356 41.6223 852.366 37.633C848.377 33.6439 845.909 28.1325 845.909 22.0451C845.909 15.9578 848.377 10.4466 852.366 6.45706C856.356 2.4678 861.868 0 867.954 0C874.041 0 879.553 2.4678 883.542 6.45706Z" fill="white"/>
<path fill-rule="evenodd" clip-rule="evenodd" d="M866.73 20.2297C867.977 20.2297 868.883 19.9804 869.427 19.5045C869.971 19.0513 870.266 18.2807 870.266 17.1929C870.266 16.1277 869.971 15.3798 869.427 14.9039C868.883 14.4507 867.977 14.224 866.73 14.224H864.192V20.2297H866.73ZM864.192 24.377V33.2156H858.164V9.8501H867.365C870.447 9.8501 872.69 10.3714 874.118 11.4138C875.569 12.4337 876.271 14.0654 876.271 16.309C876.271 17.8501 875.909 19.1193 875.161 20.1164C874.413 21.0908 873.302 21.8388 871.784 22.292C872.622 22.4961 873.348 22.9266 874.005 23.5839C874.662 24.2411 875.319 25.2382 875.977 26.598L879.263 33.2156H872.849L869.994 27.4138C869.427 26.258 868.838 25.4423 868.249 25.0342C867.659 24.6037 866.866 24.377 865.892 24.377H864.192Z" fill="white"/>
</svg>
